<?xml version="1" encoding="UTF-8"?>
<svg xmlns="http://www.w3.org/2000/svg" width="1024" height="1024" viewBox="0 0 5817.6 5817.6" role="img" aria-label="koel">
<rect width="100%" height="100%" fill="#000000"/>
<g transform="translate(0 1263)">
<path fill="#1A1A1A" d="M888.8 2378.8V888.8H1288.8V1666.8H1292.8L1560.8 1322.8H2012.8L1640.8 1786.8L2024.8 2378.8H1570.8L1346.8 2013.8L1288.8 2085.8V2378.8Z"/>
<path fill="#1A1A1A" d="M2626.8 2402.8Q2455.8 2402.8 2325.8 2335.3Q2195.8 2267.8 2123.3 2143.8Q2050.8 2019.8 2050.8 1850.8Q2050.8 1681.8 2123.3 1558.3Q2195.8 1434.8 2325.8 1366.8Q2455.8 1298.8 2626.8 1298.8Q2798.8 1298.8 2928.3 1366.8Q3057.8 1434.8 3130.3 1558.3Q3202.8 1681.8 3202.8 1850.8Q3202.8 2019.8 3130.3 2143.8Q3057.8 2267.8 2928.3 2335.3Q2798.8 2402.8 2626.8 2402.8ZM2626.8 2090.8Q2697.8 2090.8 2748.3 2030.3Q2798.8 1969.8 2798.8 1850.8Q2798.8 1731.8 2748.3 1671.3Q2697.8 1610.8 2626.8 1610.8Q2555.8 1610.8 2505.3 1671.3Q2454.8 1731.8 2454.8 1850.8Q2454.8 1969.8 2505.3 2030.3Q2555.8 2090.8 2626.8 2090.8Z"/>
<path fill="#1A1A1A" d="M3855.8 2402.8Q3691.8 2402.8 3564.8 2332.3Q3437.8 2261.8 3366.3 2136.8Q3294.8 2011.8 3294.8 1850.8Q3294.8 1688.8 3365.8 1564.3Q3436.8 1439.8 3561.3 1369.3Q3685.8 1298.8 3847.8 1298.8Q4009.8 1298.8 4134.8 1367.8Q4259.8 1436.8 4330.3 1558.8Q4400.8 1680.8 4400.8 1839.8V1946.8H3682.8Q3684.8 2030.8 3734.8 2077.8Q3784.8 2124.8 3871.8 2124.8Q3935.8 2124.8 3981.3 2100.8Q4026.8 2076.8 4042.8 2033.8H4396.8Q4377.8 2141.8 4301.8 2224.8Q4225.8 2307.8 4110.3 2355.3Q3994.8 2402.8 3855.8 2402.8ZM3685.8 1722.8H4031.8Q4021.8 1657.8 3976.8 1621.3Q3931.8 1584.8 3858.8 1584.8Q3785.8 1584.8 3740.8 1621.3Q3695.8 1657.8 3685.8 1722.8Z"/>
<path fill="#1A1A1A" d="M4928.8 888.8V2378.8H4528.8V888.8Z"/>
</g>
</svg>
